<svg version="1.2" xmlns="http://www.w3.org/2000/svg" viewBox="0 0 1157 185" width="938" height="150"><style>.a{opacity:.97;fill:#1a8085}.b{opacity:.98;fill:#0e2f40}</style><path fill-rule="evenodd" class="a" d="m1105.5 47.1c4.4-0.1 10.5 0.3 13.5 0.9 3 0.6 8.2 2.3 11.5 3.9 3.3 1.6 8.1 5.1 10.6 7.8 2.5 2.6 5.9 7.5 7.6 10.8 1.7 3.3 3.8 8.5 4.7 11.5 1 3.1 2.2 12.9 2.8 22.5 0.7 9.3 0.9 17.8 0.5 18.7-0.6 1.7-3.3 1.8-70.7 1.8v3.7c0 2.1 0.9 6.8 2 10.5 1.1 3.8 3.2 8.2 4.8 10 1.5 1.7 5 4.2 7.7 5.5 2.9 1.3 6.9 2.3 9.5 2.3 2.6 0 6.6-1 9.5-2.3 2.9-1.4 6.7-4.3 9-7 2.2-2.6 4.5-4.7 5-4.7 0.5 0 5.5 1.5 10.9 3.3 5.4 1.7 10.1 3.6 10.3 4.2 0.3 0.6-0.8 3.7-2.4 7-1.5 3.3-5.3 8.6-8.3 11.8-3.5 3.8-7.9 7.1-12 9.1-3.6 1.9-9.8 3.8-14 4.6-4.5 0.7-10.7 1-15.5 0.7-4.4-0.3-10.5-1.5-13.5-2.5-3-1.1-7.5-2.9-10-4.2-2.5-1.3-7-4.8-10.1-7.9-3.3-3.3-6.8-8.2-8.7-12.1-1.7-3.6-4.1-10.1-5.3-14.5-1.8-6.8-2.2-10.9-2.3-26.5-0.1-15 0.3-20 1.8-26.5 1-4.4 2.9-10.3 4.1-13 1.3-2.8 4-7.3 6.1-10.1 2.2-2.8 5.9-6.9 8.4-8.9 2.5-2.1 6.9-4.9 9.8-6.2 2.8-1.2 7.3-2.7 10-3.2 2.6-0.5 8.3-0.9 12.7-1zm-13.2 32.4c-1.2 1.7-2.9 4.7-3.7 6.8-0.9 2-1.9 6.4-2.3 9.7l-0.8 6h40c-1-10.5-2.1-15.5-3.2-18-1.1-2.5-3.4-5.6-5.4-7-2.5-1.8-4.9-2.5-9.4-2.7-3.3-0.2-7.6 0.3-9.5 1-1.9 0.7-4.5 2.6-5.7 4.2zm-360.3-73.5l1.1 4.3c0.6 2.3 2.8 10.7 4.9 18.7 2.1 8 6.7 25.8 10.3 39.5 3.5 13.8 8.6 33.7 11.3 44.2 2.7 10.6 5.2 19.3 5.7 19.3 0.4 0 0.7-0.7 0.7-1.5 0-0.8 3.2-13.8 7-28.8 3.9-14.9 10.2-39.6 14.1-54.7 3.9-15.1 8-30.5 10.9-41h46v175h-32l-0.1-122.5-2 7.5c-1.1 4.1-4.3 15.2-7 24.5-2.7 9.3-9.5 33-15 52.5-5.5 19.5-10.2 36.1-10.5 36.8-0.3 0.9-3.7 1.1-25.9 0.7l-16.8-59c-9.2-32.4-17.2-60.3-17.7-62-0.6-1.9-0.8 19.3 0 121.5l-31.5-0.5-0.3-86c-0.1-47.3 0-86.6 0.3-87.3 0.3-0.9 6-1.2 46.5-1.2zm254 13h34v30l23.5 0.5 0.1 11c0.1 6-0.1 11.8-0.3 12.8-0.3 1.5-1.6 1.7-23.3 1.7v35.3c0 20.1 0.4 36.8 1 39 0.7 2.7 1.9 4.1 4.3 5.3 2.3 1.2 5.2 1.5 18.2 0.9l0.3 12.8c0.2 12.3 0.1 12.7-2 13.9-1.5 0.8-7.1 1.2-15.8 1.2-11.6 0.1-14.3-0.3-19-2.1-3-1.2-7.3-3.8-9.5-5.6-2.2-1.9-5-5.4-6.2-7.8-1.2-2.4-2.9-7.9-3.8-12.1-1.2-6.1-1.5-15.6-1.5-80.8l-17.5-0.5v-25l17.5-0.5zm-71 28.4c11.6 0.2 14.3 0.6 19.2 2.7 3.1 1.3 7.6 3.8 10 5.4 2.3 1.7 5.8 5.3 7.6 8 1.8 2.8 4.1 7.9 5.2 11.5 1.6 5.8 1.9 11.3 2.4 49 0.4 33.3 0.8 43.6 1.9 47.5 0.9 2.8 1.8 6 2.7 9.5l-33.5-0.5-2.5-11.5-5.7 5.1c-3.2 2.8-8.3 6-11.3 7.2-4.2 1.6-7.7 2.1-15 2.1-7.7 0-10.6-0.5-15.5-2.4-3.8-1.6-7.7-4.2-10.7-7.2-2.7-2.6-5.9-7.2-7.3-10-1.3-2.9-2.9-8.5-3.6-12.3-0.9-5.3-0.9-8.9 0-14.7 0.6-4.3 2.2-9.9 3.5-12.5 1.3-2.7 4.7-6.9 7.5-9.5 2.8-2.7 7-5.7 9.4-6.7 2.3-1.1 7.1-2.7 10.7-3.5 3.6-0.8 12.6-1.7 20-2 7.4-0.3 14.2-0.6 15-0.6 1.3 0 1.4-1.4 0.9-8.7-0.4-5.5-1.3-10.2-2.5-12.7-1-2.1-3.3-4.6-4.9-5.4-1.6-0.9-5.2-1.6-8-1.6-2.7 0-6.3 0.7-7.9 1.5-1.6 0.7-3.8 2.5-4.8 3.9-1 1.4-2.2 4.1-3.4 9.5l-15.9 0.3c-12 0.1-16.2-0.1-16.7-1-0.4-0.7-0.4-2.6-0.1-4.3 0.2-1.7 1.2-5.3 2-8 0.9-2.7 2.8-6.8 4.3-9 1.5-2.2 4.7-5.8 7.1-7.9 2.4-2.2 7.2-5.3 10.7-6.8 3.4-1.5 8.3-3.2 11-3.7 2.6-0.6 10.8-0.9 18.2-0.7zm-15.9 78.3c-1.3 1-3.3 3.6-4.4 5.8-1.4 2.6-2.1 5.9-2.1 9.5 0 3.3 0.7 6.8 1.7 8.8 0.9 1.7 3.1 3.9 4.7 4.7 1.6 0.8 4.8 1.5 7 1.5 2.2 0 6.1-1 8.7-2.2 2.5-1.3 6.1-4 8-6l3.3-3.8v-23c-12.8 0.1-18.3 0.7-20.5 1.5-2.2 0.8-5.1 2.3-6.4 3.2z"/><path fill-rule="evenodd" class="b" d="m64.3 1.1c4.2 0 11.2 0.6 15.5 1.5 4.2 0.9 10.6 3 14.2 4.7 3.9 1.8 8.7 5.3 12 8.7 3.8 3.7 7 8.3 9.8 14 2.4 4.9 4.8 11.8 5.7 16.3 0.8 4.2 1.5 10.2 1.5 18.7l-34.5-0.5-0.6-8c-0.4-4.9-1.4-9.9-2.8-13-1.2-2.7-3.2-6.1-4.4-7.3-1.2-1.3-4-3.4-6.2-4.5-3.1-1.7-5.8-2.2-11.5-2.2-5.7 0-8.5 0.6-11.5 2.1-2.2 1.2-5.5 3.9-7.3 6-1.8 2.1-4.1 6.6-5.2 9.9-1.1 3.3-2.4 9.1-3 13-0.5 3.8-1 18.6-1 32.8 0 14.3 0.5 29.1 1.2 33.5 0.6 4.2 1.1 8.5 1.2 9.5 0.1 0.9 0.3 1.7 0.6 1.7 0.3 0 1 1.4 1.7 3.2 0.7 1.8 2.7 5.1 4.6 7.3 2.2 2.6 5 4.6 8.3 5.8 2.7 0.9 7.6 1.7 10.9 1.7 4.2 0 7.5-0.7 11-2.4 2.8-1.3 5.8-3.2 6.7-4.2 0.9-1 2.7-4.1 3.9-6.9 1.2-2.7 2.4-7.7 3.4-17h35l-0.3 4c-0.1 2.2-1 7.4-1.8 11.5-0.9 4.1-3.2 10.5-5 14.3-2 3.9-5.8 9.1-9.1 12.5-3.5 3.4-8.4 7.1-12.3 9-3.6 1.7-7.4 3.3-8.5 3.5-1.1 0.1-2.5 0.6-3 0.9-0.5 0.4-4.4 1.2-8.5 1.9-4.3 0.6-11.7 0.9-17.5 0.6-7-0.4-12.4-1.3-18-3.2-4.4-1.5-10.4-4.3-13.4-6.3-3-2.1-7.2-5.7-9.3-8.2-2.1-2.5-5.3-7.4-7.2-11-1.8-3.6-4.1-9-4.9-12-0.8-3-2.1-8.9-2.9-13-0.9-5.2-1.3-16.4-1.2-36.5 0-25.3 0.3-30.3 2.1-39 1.1-5.5 3.6-13.6 5.4-18 1.8-4.4 5.2-10.5 7.4-13.5 2.3-3 6.1-7.1 8.5-9.1 2.5-2 6.8-4.8 9.5-6.1 2.8-1.4 6.8-3.1 9-3.8 2.2-0.7 6.3-1.6 9-2 2.8-0.4 8.5-0.8 12.8-0.9zm129.7 46.4c6.8 0.2 12.4 1 16 2.3 3 1 6.9 2.6 8.5 3.5 1.7 0.8 5 3.3 7.5 5.4 2.5 2.2 6.1 6.4 8.2 9.4 2 3 4.5 7.9 5.7 10.9 1.1 3 2.7 8.4 3.5 12 0.8 3.6 1.7 10.8 2 16 0.4 5.2 0.2 14.7-0.4 21-0.7 7-2.1 14.5-3.6 19-1.4 4.1-3.7 9.5-5.2 12-1.4 2.5-4.8 6.9-7.6 9.8-2.8 3-7.3 6.6-10.1 8.2-2.7 1.6-7.7 3.6-11 4.6-4.1 1.2-9.3 1.8-16.5 1.8-7.9 0-12.2-0.5-17.5-2.1-3.8-1.2-9.7-3.9-13-6.1-3.4-2.3-7.9-6.5-10.4-9.8-2.5-3.3-5.5-8.1-6.7-10.9-1.2-2.7-2.9-7.7-3.7-11-0.9-3.3-2.1-10.9-2.7-17-0.6-6-0.8-14.4-0.5-18.5 0.4-4.1 1.3-11.3 2.1-16 1-5.4 2.9-11.4 5.4-16.5 2.1-4.4 5.6-10 7.7-12.4 2.1-2.4 5.6-5.6 7.8-7.2 2.2-1.5 6.5-3.7 9.5-4.9 3-1.2 7.5-2.6 10-3.1 2.5-0.4 9.2-0.6 15-0.4zm-16.8 32.4c-0.7 0.9-2.4 3.9-3.7 6.6-1.8 3.6-2.8 8.2-3.7 16.5-0.9 8.8-0.9 14.2 0 23 0.6 6.3 1.8 13.5 2.7 16 0.9 2.5 2.6 6.1 3.9 8 1.2 1.9 3.9 4.3 5.9 5.3 2.1 0.9 6 1.7 9 1.7 3.7 0 6.4-0.7 9.2-2.4 2.2-1.3 5-4.1 6.2-6.2 1.2-2.2 2.8-6.8 3.6-10.4 0.9-3.6 1.8-10.6 2.1-15.5 0.4-4.9 0.2-13.7-0.3-19.5-0.6-6.8-1.7-12.6-3.3-16.4-1.5-4-3.5-6.9-6.1-9-3.3-2.7-4.9-3.1-10.5-3.4-5.5-0.3-7.3 0.1-10.2 1.9-1.9 1.2-4.1 2.9-4.8 3.8zm264.8-32.8c2.5 0 5.2 0.3 6 0.9 1.3 0.8 1.3 2.3 0.2 12.2-0.7 6.2-1.5 12.8-2.2 17.8h-7.2c-4 0-8.9 0.5-10.8 1-1.9 0.6-4.9 2-6.7 3.3-1.7 1.2-4.1 3.5-5.2 5.2-2 2.9-2.1 4.2-2.1 93.5l-33.5-0.5v-130l32.5-0.5v6.5c0 3.6 0.3 6.5 0.8 6.5 0.4 0.1 1.9-1.7 3.5-4 1.5-2.2 4.6-5.2 6.9-6.7 2.3-1.6 6.3-3.3 8.8-4 2.5-0.6 6.5-1.2 9-1.2zm61 0c4.7 0 11.4 0.5 15 1.3 3.6 0.7 9 2.6 12 4.1 3 1.6 7.8 5.1 10.5 7.9 2.8 2.8 6.1 7.4 7.4 10.1 1.3 2.8 2.8 7.3 3.3 10 0.6 2.8 0.8 5.8 0.4 6.8-0.5 1.5-2.1 1.7-30 1.2l-1.8-5c-1-2.7-2.6-5.8-3.6-6.9-0.9-1-3.1-2.5-4.7-3.4-1.6-0.8-5.2-1.5-8-1.5-2.7 0-6.5 0.7-8.2 1.7-1.8 0.9-4.2 2.8-5.3 4.4-1.4 1.8-2 4.1-2 7.2 0.1 3.8 0.6 5 3.8 8.1 2.7 2.6 6.1 4.4 12.2 6.4 4.7 1.5 12.5 4.3 17.5 6.2 5 2 11.3 5 14 6.7 2.8 1.8 6.5 5 8.4 7.2 1.9 2.1 4.4 5.9 5.5 8.4 1.7 3.7 2.1 6.5 2.1 15 0 9.8-0.2 11-3.1 17-2 4-5.1 8.3-8.1 11-2.7 2.5-7.1 5.6-9.8 6.9-2.8 1.3-7.2 3.1-10 4-3.5 1.1-8.7 1.6-17 1.5-8.6 0-13.7-0.5-18-1.8-3.3-1-8.2-3-11-4.6-2.7-1.6-7.1-5.1-9.7-7.9-2.7-2.8-6-7.7-7.4-10.8-1.4-3.2-2.9-8.4-3.9-17.4l30.8 0.6 1.3 4.5c0.7 2.5 2.5 5.8 4.1 7.4 1.5 1.6 4.3 3.5 6.1 4.2 1.7 0.8 5.6 1.4 8.5 1.4 3 0 6.7-0.7 8.6-1.8 1.9-0.9 4.4-3 5.5-4.5 1.5-2 2.1-4.4 2.1-8.2 0-3.9-0.5-5.9-2-7.5-1.1-1.2-3.6-3-5.5-4-1.9-1-9.8-4.1-17.5-6.9-7.7-2.8-16-6.3-18.5-7.8-2.5-1.5-6.5-4.5-8.8-6.7-2.4-2.3-5.8-7-7.5-10.6-2.9-5.8-3.2-7.4-3.2-15.5 0-7.9 0.4-9.8 3-15.4 2-4.1 4.8-8.1 8.3-11.2 2.8-2.7 7.8-6.1 11-7.6 3.1-1.4 7.7-2.9 10.2-3.3 2.5-0.4 8.3-0.8 13-0.9zm112 0c3.6-0.1 9 0.3 12 0.9 3 0.6 8.6 2.5 12.4 4.3 4.9 2.3 8.3 4.8 11.8 8.7 2.8 3 6.3 8.3 7.9 11.8 1.6 3.4 3.6 9.2 4.5 12.9 1.2 4.7 1.7 11.7 1.9 38.8l-71 0.5 0.8 6c0.4 3.3 1.6 8.4 2.7 11.3 1 2.8 3.4 6.6 5.2 8.4 1.8 1.8 5 3.9 7.1 4.7 2 0.9 6.1 1.6 9 1.6 3.3 0 7-0.9 10.2-2.3 2.8-1.3 6.3-3.9 7.9-5.8 1.5-1.9 3.2-4.1 3.6-4.9 0.7-1.3 2.4-1 11.7 1.9 5.9 1.9 11.3 3.8 11.8 4.2 0.6 0.5-0.2 3.3-2.4 7.6-2 4-5.8 9.1-9 12.3-3.2 3.1-8.2 6.8-11.6 8.4-3.3 1.6-9.1 3.5-13 4.3-4.7 1-9.8 1.3-15.5 0.9-4.7-0.3-11.2-1.5-14.5-2.6-3.3-1.2-8.2-3.3-10.9-4.8-2.7-1.5-7.1-5.2-9.9-8.2-2.7-3-6.4-8.7-8.2-12.5-1.8-3.8-4.1-10.6-5.1-15-1.4-6.2-1.8-12-1.8-25.5 0.1-12.5 0.5-19.7 1.7-25 1-4.1 3.2-10.7 5-14.5 2-4.1 5.8-9.6 9.3-13.4 4.3-4.6 7.8-7.2 12.9-9.6 3.9-1.9 9.3-3.8 12-4.3 2.8-0.6 7.9-1 11.5-1.1zm-5.2 27.3c-1.6 0.3-4.6 2.3-6.9 4.3-2.6 2.5-4.5 5.5-5.6 8.8-0.9 2.7-1.6 7.2-1.7 10l-0.1 5 39.5 0.5c0-7-0.4-11.1-1-13.8-0.5-2.6-2-6.2-3.2-8.1-1.3-1.9-3.7-4.3-5.3-5.2-1.6-1-4.8-2-7-2.3-2.2-0.3-4.5-0.4-5-0.2-0.5 0.3-2.2 0.7-3.7 1zm-350.8-24.4h33l0.5 92.5 2.5 4.9c1.4 2.8 3.6 5.8 5 6.9 1.4 1 4.5 2.1 7 2.4 3.4 0.5 5.6 0.1 9-1.5 2.5-1.1 6.2-3.9 12-10.2v-95h33v131h-15.5c-12.9 0-15.6-0.3-16-1.5-0.3-0.8-0.5-3.5-0.5-6 0-2.5-0.1-4.5-0.2-4.5-0.2 0-2.6 2.1-5.4 4.7-3.2 3.1-7.3 5.7-11.5 7.3-5.1 2-8.1 2.5-14.9 2.5-4.7-0.1-10.3-0.7-12.5-1.4-2.2-0.7-6-2.6-8.5-4.1-2.5-1.6-5.9-4.8-7.6-7.2-1.7-2.4-4.1-6.9-5.3-10.1-1.1-3.1-2.5-9.6-3.1-14.5-0.5-4.8-1-28.4-1-52.5z"/></svg>